<svg xmlns="http://www.w3.org/2000/svg" height="512" width="512"><path d="M467.7 293.8a45.682 45.682 0 1 1-59.63 24.84 45.695 45.695 0 0 1 59.63-24.84zm24.45-136.17a45.682 45.682 0 1 1-59.73-24.61 45.674 45.674 0 0 1 59.73 24.61zm-113.17 274.8a45.682 45.682 0 1 1-59.74-24.61 45.679 45.679 0 0 1 59.74 24.61zM353.43 19.45a45.683 45.683 0 1 1-59.64 24.85 45.69 45.69 0 0 1 59.64-24.85z" fill="#e48e66"/><path d="M256 151a105 105 0 1 1-105 105 105 105 0 0 1 105-105z" fill="#f8ec7d"/><path d="M290.88 238.8l-42.22 97.26-.6-62.86h-26.93l42.22-97.26.6 62.86z" fill="#6fe3ff"/><path d="M193.37 408.07a45.683 45.683 0 1 1-59.64 24.84 45.667 45.667 0 0 1 59.64-24.84zm24-363.62a45.682 45.682 0 1 1-59.73-24.6 45.677 45.677 0 0 1 59.73 24.6zM104.2 319.24a45.682 45.682 0 1 1-59.74-24.6 45.694 45.694 0 0 1 59.74 24.6zm-25.1-185.5a45.682 45.682 0 1 1-59.64 24.84 45.682 45.682 0 0 1 59.64-24.84z" fill="#e48e66"/><g fill="#63316d"><path d="M469.985 288.242a51.652 51.652 0 0 0-64.85 22.69L360.77 292.66a110.987 110.987 0 0 0-.149-73.741l44.285-18.45a51.679 51.679 0 1 0 25.206-72.989 51.771 51.771 0 0 0-29.813 61.91L356 207.843a111.73 111.73 0 0 0-52.249-52.035l18.277-44.375a51.684 51.684 0 1 0-11.1-4.568l-18.273 44.364a110.987 110.987 0 0 0-73.741.149l-18.45-44.285A51.662 51.662 0 0 0 222.9 42.142a51.7 51.7 0 1 0-33.51 69.558l18.454 44.3a111.728 111.728 0 0 0-52.036 52.249l-44.374-18.277a51.7 51.7 0 1 0-4.569 11.1l44.364 18.273a110.987 110.987 0 0 0 .149 73.741l-44.285 18.45a51.7 51.7 0 1 0 4.607 11.075l44.3-18.453a111.73 111.73 0 0 0 52.249 52.035l-18.277 44.374a51.692 51.692 0 1 0 11.1 4.569l18.273-44.364a110.987 110.987 0 0 0 73.741-.149l18.45 44.285a51.679 51.679 0 1 0 72.988 25.206A51.77 51.77 0 0 0 322.61 400.3L304.156 356a111.728 111.728 0 0 0 52.036-52.249l44.374 18.277a51.68 51.68 0 1 0 69.419-33.786zM434.727 138.56a39.683 39.683 0 1 1-21.377 51.9 39.744 39.744 0 0 1 21.377-51.9zM299.4 76.957a39.692 39.692 0 1 1 21.517 21.424A39.422 39.422 0 0 1 299.4 76.957zm-160.837.316a39.682 39.682 0 0 1 73.262-30.516 39.676 39.676 0 0 1-21.37 51.893 39.742 39.742 0 0 1-51.896-21.377zM76.957 212.6a39.694 39.694 0 1 1 21.424-21.517A39.426 39.426 0 0 1 76.957 212.6zm.316 160.837a39.682 39.682 0 0 1-30.516-73.262 39.678 39.678 0 0 1 51.893 21.368 39.743 39.743 0 0 1-21.377 51.898zm135.33 61.6a39.792 39.792 0 1 1-21.517-21.424 39.422 39.422 0 0 1 21.513 21.43zm160.837-.316a39.684 39.684 0 1 1-51.9-21.377 39.69 39.69 0 0 1 51.891 21.379zM256 355a99 99 0 1 1 99-99 99.112 99.112 0 0 1-99 99zm231-3.856a39.741 39.741 0 1 1-21.587-51.806A39.73 39.73 0 0 1 487 351.144z"/><path d="M42.14 289.102l.002-.001h.001zM290.88 232.8h-20.988l-.553-56.918a6 6 0 0 0-11.5-2.33l-42.22 97.26a6 6 0 0 0 5.5 8.388h20.988l.553 56.918a6 6 0 0 0 11.5 2.33l42.22-97.26a6 6 0 0 0-5.5-8.388zm-36.494 75l-.337-34.66a6 6 0 0 0-6-5.942h-17.783l27.348-63 .337 34.66a6 6 0 0 0 6 5.942h17.784z"/></g></svg>